<svg xmlns="http://www.w3.org/2000/svg" xmlns:xlink="http://www.w3.org/1999/xlink" style="margin:auto;background:#ffffff;display:block;z-index:1;position:relative" preserveAspectRatio="xMidYMid" viewBox="0 0 1322 664"><g transform="translate(661,332) scale(1,1) translate(-661,-332)"><defs><linearGradient id="ldbk-photon-x4yhk25rqp-lg" x1="636" x2="1322" y1="0" y2="0" gradientUnits="userSpaceOnUse"><stop stop-color="#1d3f72" offset="0"/><stop stop-color="#34ffef" offset="1"/></linearGradient><mask id="ldbk-photon-x4yhk25rqp-mask"><g><path d="M1622 -0.5 L625.2510269770695 -0.5 A15.5 15.5 0 0 1 625.2510269770695 31.5 L1622 31.5" fill="#fff"><animateTransform attributeName="transform" type="translate" dur="10s" repeatCount="indefinite" keyTimes="0;0.5;1" calcMode="spline" keySplines="0.5 0 0.5 1;0.5 0 0.5 1" values="38.34301775605161;0;38.34301775605161" begin="0s"/></path><path d="M1367.5595278556 -0.5 L1382.1190557112 -0.5 A15.5 15.5 0 0 1 1382.1190557112 31.5 L1367.5595278556 31.5 A15.5 15.5 0 0 1 1367.5595278556 -0.5" fill="#000"><animateTransform attributeName="transform" type="translate" dur="5s" repeatCount="indefinite" keyTimes="0;1" values="0;-1561.70229947188" begin="0s"/><animate attributeName="opacity" dur="5s" repeatCount="indefinite" keyTimes="0;0.3;1" values="1;1;0" begin="0s"/></path><path d="M1622 30.5 L590.4921289391452 30.5 A15.5 15.5 0 0 0 590.4921289391452 62.5 L1622 62.5" fill="#fff"><animateTransform attributeName="transform" type="translate" dur="5s" repeatCount="indefinite" keyTimes="0;0.5;1" calcMode="spline" keySplines="0.5 0 0.5 1;0.5 0 0.5 1" values="-28.989990279298617;0;-28.989990279298617" begin="-1.3636363636363635s"/></path><path d="M741.3525155336172 30.5 L764.0000891607575 30.5 A15.5 15.5 0 0 1 764.0000891607575 62.5 L741.3525155336172 62.5 A15.5 15.5 0 0 1 741.3525155336172 30.5" fill="#fff"><animateTransform attributeName="transform" type="translate" dur="3.3333333333333335s" repeatCount="indefinite" keyTimes="0;1" values="0;0" begin="-1.3636363636363635s"/><animate attributeName="opacity" dur="3.3333333333333335s" repeatCount="indefinite" keyTimes="0;0.3;1" values="1;1;0" begin="-1.3636363636363635s"/></path><path d="M1622 61.5 L611.4235865942601 61.5 A15.5 15.5 0 0 1 611.4235865942601 93.5 L1622 93.5" fill="#fff"><animateTransform attributeName="transform" type="translate" dur="3.3333333333333335s" repeatCount="indefinite" keyTimes="0;0.5;1" calcMode="spline" keySplines="0.5 0 0.5 1;0.5 0 0.5 1" values="36.743925943416414;0;36.743925943416414" begin="-2.727272727272727s"/></path><path d="M1380.131079042006 61.5 L1407.2621580840118 61.5 A15.5 15.5 0 0 1 1407.2621580840118 93.5 L1380.131079042006 93.5 A15.5 15.5 0 0 1 1380.131079042006 61.5" fill="#000"><animateTransform attributeName="transform" type="translate" dur="3.3333333333333335s" repeatCount="indefinite" keyTimes="0;1" values="0;-1473.2763518780291" begin="-2.727272727272727s"/><animate attributeName="opacity" dur="3.3333333333333335s" repeatCount="indefinite" keyTimes="0;0.3;1" values="1;1;0" begin="-2.727272727272727s"/></path><path d="M1622 92.5 L590.0809664323814 92.5 A15.5 15.5 0 0 0 590.0809664323814 124.5 L1622 124.5" fill="#fff"><animateTransform attributeName="transform" type="translate" dur="3.3333333333333335s" repeatCount="indefinite" keyTimes="0;0.5;1" calcMode="spline" keySplines="0.5 0 0.5 1;0.5 0 0.5 1" values="-25.736207959252987;0;-25.736207959252987" begin="-4.090909090909091s"/></path><path d="M713.5010980295609 92.5 L752.619408703015 92.5 A15.5 15.5 0 0 1 752.619408703015 124.5 L713.5010980295609 124.5 A15.5 15.5 0 0 1 713.5010980295609 92.5" fill="#fff"><animateTransform attributeName="transform" type="translate" dur="3.3333333333333335s" repeatCount="indefinite" keyTimes="0;1" values="0;0" begin="-4.090909090909091s"/><animate attributeName="opacity" dur="3.3333333333333335s" repeatCount="indefinite" keyTimes="0;0.3;1" values="1;1;0" begin="-4.090909090909091s"/></path><path d="M1622 123.5 L613.5176500653514 123.5 A15.5 15.5 0 0 1 613.5176500653514 155.5 L1622 155.5" fill="#fff"><animateTransform attributeName="transform" type="translate" dur="10s" repeatCount="indefinite" keyTimes="0;0.5;1" calcMode="spline" keySplines="0.5 0 0.5 1;0.5 0 0.5 1" values="32.15492655595644;0;32.15492655595644" begin="-5.454545454545454s"/></path><path d="M1370.4092667884936 123.5 L1387.8185335769872 123.5 A15.5 15.5 0 0 1 1387.8185335769872 155.5 L1370.4092667884936 155.5 A15.5 15.5 0 0 1 1370.4092667884936 123.5" fill="#000"><animateTransform attributeName="transform" type="translate" dur="3.3333333333333335s" repeatCount="indefinite" keyTimes="0;1" values="0;-1569.2628877857314" begin="-5.454545454545454s"/><animate attributeName="opacity" dur="3.3333333333333335s" repeatCount="indefinite" keyTimes="0;0.3;1" values="1;1;0" begin="-5.454545454545454s"/></path><path d="M1622 154.5 L586.0029785877412 154.5 A15.5 15.5 0 0 0 586.0029785877412 186.5 L1622 186.5" fill="#fff"><animateTransform attributeName="transform" type="translate" dur="5s" repeatCount="indefinite" keyTimes="0;0.5;1" calcMode="spline" keySplines="0.5 0 0.5 1;0.5 0 0.5 1" values="-36.561422931626076;0;-36.561422931626076" begin="-6.8181818181818175s"/></path><path d="M658.4300649267041 154.5 L689.414987394196 154.5 A15.5 15.5 0 0 1 689.414987394196 186.5 L658.4300649267041 186.5 A15.5 15.5 0 0 1 658.4300649267041 154.5" fill="#fff"><animateTransform attributeName="transform" type="translate" dur="10s" repeatCount="indefinite" keyTimes="0;1" values="0;0" begin="-6.8181818181818175s"/><animate attributeName="opacity" dur="10s" repeatCount="indefinite" keyTimes="0;0.3;1" values="1;1;0" begin="-6.8181818181818175s"/></path><path d="M1622 185.5 L630.6316557083792 185.5 A15.5 15.5 0 0 1 630.6316557083792 217.5 L1622 217.5" fill="#fff"><animateTransform attributeName="transform" type="translate" dur="5s" repeatCount="indefinite" keyTimes="0;0.5;1" calcMode="spline" keySplines="0.5 0 0.5 1;0.5 0 0.5 1" values="38.57938541073932;0;38.57938541073932" begin="-8.181818181818182s"/></path><path d="M1385.2308030676547 185.5 L1417.4616061353095 185.5 A15.5 15.5 0 0 1 1417.4616061353095 217.5 L1385.2308030676547 217.5 A15.5 15.5 0 0 1 1385.2308030676547 185.5" fill="#000"><animateTransform attributeName="transform" type="translate" dur="10s" repeatCount="indefinite" keyTimes="0;1" values="0;-1322.2644118044443" begin="-8.181818181818182s"/><animate attributeName="opacity" dur="10s" repeatCount="indefinite" keyTimes="0;0.3;1" values="1;1;0" begin="-8.181818181818182s"/></path><path d="M1622 216.5 L578.193480215642 216.5 A15.5 15.5 0 0 0 578.193480215642 248.5 L1622 248.5" fill="#fff"><animateTransform attributeName="transform" type="translate" dur="5s" repeatCount="indefinite" keyTimes="0;0.5;1" calcMode="spline" keySplines="0.5 0 0.5 1;0.5 0 0.5 1" values="-42.00083753425689;0;-42.00083753425689" begin="-9.545454545454547s"/></path><path d="M676.6687095903869 216.5 L714.768449202915 216.5 A15.5 15.5 0 0 1 714.768449202915 248.5 L676.6687095903869 248.5 A15.5 15.5 0 0 1 676.6687095903869 216.5" fill="#fff"><animateTransform attributeName="transform" type="translate" dur="5s" repeatCount="indefinite" keyTimes="0;1" values="0;0" begin="-9.545454545454547s"/><animate attributeName="opacity" dur="5s" repeatCount="indefinite" keyTimes="0;0.3;1" values="1;1;0" begin="-9.545454545454547s"/></path><path d="M1622 247.5 L632.8962554863797 247.5 A15.5 15.5 0 0 1 632.8962554863797 279.5 L1622 279.5" fill="#fff"><animateTransform attributeName="transform" type="translate" dur="3.3333333333333335s" repeatCount="indefinite" keyTimes="0;0.5;1" calcMode="spline" keySplines="0.5 0 0.5 1;0.5 0 0.5 1" values="46.081646668338706;0;46.081646668338706" begin="-10.909090909090908s"/></path><path d="M1373.428281471359 247.5 L1393.856562942718 247.5 A15.5 15.5 0 0 1 1393.856562942718 279.5 L1373.428281471359 279.5 A15.5 15.5 0 0 1 1373.428281471359 247.5" fill="#000"><animateTransform attributeName="transform" type="translate" dur="3.3333333333333335s" repeatCount="indefinite" keyTimes="0;1" values="0;-1230.12635673338" begin="-10.909090909090908s"/><animate attributeName="opacity" dur="3.3333333333333335s" repeatCount="indefinite" keyTimes="0;0.3;1" values="1;1;0" begin="-10.909090909090908s"/></path><path d="M1622 278.5 L587.9339927502374 278.5 A15.5 15.5 0 0 0 587.9339927502374 310.5 L1622 310.5" fill="#fff"><animateTransform attributeName="transform" type="translate" dur="5s" repeatCount="indefinite" keyTimes="0;0.5;1" calcMode="spline" keySplines="0.5 0 0.5 1;0.5 0 0.5 1" values="-40.71157460365416;0;-40.71157460365416" begin="-12.272727272727273s"/></path><path d="M704.6770575650003 278.5 L726.6905225445834 278.5 A15.5 15.5 0 0 1 726.6905225445834 310.5 L704.6770575650003 310.5 A15.5 15.5 0 0 1 704.6770575650003 278.5" fill="#fff"><animateTransform attributeName="transform" type="translate" dur="5s" repeatCount="indefinite" keyTimes="0;1" values="0;0" begin="-12.272727272727273s"/><animate attributeName="opacity" dur="5s" repeatCount="indefinite" keyTimes="0;0.3;1" values="1;1;0" begin="-12.272727272727273s"/></path><path d="M1622 309.5 L645.7015743031053 309.5 A15.5 15.5 0 0 1 645.7015743031053 341.5 L1622 341.5" fill="#fff"><animateTransform attributeName="transform" type="translate" dur="5s" repeatCount="indefinite" keyTimes="0;0.5;1" calcMode="spline" keySplines="0.5 0 0.5 1;0.5 0 0.5 1" values="37.243198005015486;0;37.243198005015486" begin="-13.636363636363635s"/></path><path d="M1390.388990012726 309.5 L1427.777980025452 309.5 A15.5 15.5 0 0 1 1427.777980025452 341.5 L1390.388990012726 341.5 A15.5 15.5 0 0 1 1390.388990012726 309.5" fill="#000"><animateTransform attributeName="transform" type="translate" dur="3.3333333333333335s" repeatCount="indefinite" keyTimes="0;1" values="0;-1457.5981959471437" begin="-13.636363636363635s"/><animate attributeName="opacity" dur="3.3333333333333335s" repeatCount="indefinite" keyTimes="0;0.3;1" values="1;1;0" begin="-13.636363636363635s"/></path><path d="M1622 340.5 L616.398569241099 340.5 A15.5 15.5 0 0 0 616.398569241099 372.5 L1622 372.5" fill="#fff"><animateTransform attributeName="transform" type="translate" dur="5s" repeatCount="indefinite" keyTimes="0;0.5;1" calcMode="spline" keySplines="0.5 0 0.5 1;0.5 0 0.5 1" values="-33.57494528454557;0;-33.57494528454557" begin="-15s"/></path><path d="M715.6345068638259 340.5 L742.1974132428354 340.5 A15.5 15.5 0 0 1 742.1974132428354 372.5 L715.6345068638259 372.5 A15.5 15.5 0 0 1 715.6345068638259 340.5" fill="#fff"><animateTransform attributeName="transform" type="translate" dur="10s" repeatCount="indefinite" keyTimes="0;1" values="0;0" begin="-15s"/><animate attributeName="opacity" dur="10s" repeatCount="indefinite" keyTimes="0;0.3;1" values="1;1;0" begin="-15s"/></path><path d="M1622 371.5 L636.4367492368601 371.5 A15.5 15.5 0 0 1 636.4367492368601 403.5 L1622 403.5" fill="#fff"><animateTransform attributeName="transform" type="translate" dur="10s" repeatCount="indefinite" keyTimes="0;0.5;1" calcMode="spline" keySplines="0.5 0 0.5 1;0.5 0 0.5 1" values="40.76260740638955;0;40.76260740638955" begin="-16.363636363636363s"/></path><path d="M1364.6869656617564 371.5 L1376.3739313235128 371.5 A15.5 15.5 0 0 1 1376.3739313235128 403.5 L1364.6869656617564 403.5 A15.5 15.5 0 0 1 1364.6869656617564 371.5" fill="#000"><animateTransform attributeName="transform" type="translate" dur="3.3333333333333335s" repeatCount="indefinite" keyTimes="0;1" values="0;-1242.6338653613316" begin="-16.363636363636363s"/><animate attributeName="opacity" dur="3.3333333333333335s" repeatCount="indefinite" keyTimes="0;0.3;1" values="1;1;0" begin="-16.363636363636363s"/></path><path d="M1622 402.5 L620.9946025380733 402.5 A15.5 15.5 0 0 0 620.9946025380733 434.5 L1622 434.5" fill="#fff"><animateTransform attributeName="transform" type="translate" dur="10s" repeatCount="indefinite" keyTimes="0;0.5;1" calcMode="spline" keySplines="0.5 0 0.5 1;0.5 0 0.5 1" values="-31.125260120527017;0;-31.125260120527017" begin="-17.72727272727273s"/></path><path d="M737.7971554959048 402.5 L752.1715944206735 402.5 A15.5 15.5 0 0 1 752.1715944206735 434.5 L737.7971554959048 434.5 A15.5 15.5 0 0 1 737.7971554959048 402.5" fill="#fff"><animateTransform attributeName="transform" type="translate" dur="3.3333333333333335s" repeatCount="indefinite" keyTimes="0;1" values="0;0" begin="-17.72727272727273s"/><animate attributeName="opacity" dur="3.3333333333333335s" repeatCount="indefinite" keyTimes="0;0.3;1" values="1;1;0" begin="-17.72727272727273s"/></path><path d="M1622 433.5 L656.4386141835536 433.5 A15.5 15.5 0 0 1 656.4386141835536 465.5 L1622 465.5" fill="#fff"><animateTransform attributeName="transform" type="translate" dur="3.3333333333333335s" repeatCount="indefinite" keyTimes="0;0.5;1" calcMode="spline" keySplines="0.5 0 0.5 1;0.5 0 0.5 1" values="25.072761156644646;0;25.072761156644646" begin="-19.090909090909093s"/></path><path d="M1372.154054760507 433.5 L1391.308109521014 433.5 A15.5 15.5 0 0 1 1391.308109521014 465.5 L1372.154054760507 465.5 A15.5 15.5 0 0 1 1372.154054760507 433.5" fill="#000"><animateTransform attributeName="transform" type="translate" dur="3.3333333333333335s" repeatCount="indefinite" keyTimes="0;1" values="0;-1424.4680679794778" begin="-19.090909090909093s"/><animate attributeName="opacity" dur="3.3333333333333335s" repeatCount="indefinite" keyTimes="0;0.3;1" values="1;1;0" begin="-19.090909090909093s"/></path><path d="M1622 464.5 L631.0157701991596 464.5 A15.5 15.5 0 0 0 631.0157701991596 496.5 L1622 496.5" fill="#fff"><animateTransform attributeName="transform" type="translate" dur="5s" repeatCount="indefinite" keyTimes="0;0.5;1" calcMode="spline" keySplines="0.5 0 0.5 1;0.5 0 0.5 1" values="-46.567550899321745;0;-46.567550899321745" begin="-20.454545454545453s"/></path><path d="M738.3499864219015 464.5 L763.4773778084486 464.5 A15.5 15.5 0 0 1 763.4773778084486 496.5 L738.3499864219015 496.5 A15.5 15.5 0 0 1 738.3499864219015 464.5" fill="#fff"><animateTransform attributeName="transform" type="translate" dur="5s" repeatCount="indefinite" keyTimes="0;1" values="0;0" begin="-20.454545454545453s"/><animate attributeName="opacity" dur="5s" repeatCount="indefinite" keyTimes="0;0.3;1" values="1;1;0" begin="-20.454545454545453s"/></path><path d="M1622 495.5 L698.6627022789811 495.5 A15.5 15.5 0 0 1 698.6627022789811 527.5 L1622 527.5" fill="#fff"><animateTransform attributeName="transform" type="translate" dur="5s" repeatCount="indefinite" keyTimes="0;0.5;1" calcMode="spline" keySplines="0.5 0 0.5 1;0.5 0 0.5 1" values="26.025658883344168;0;26.025658883344168" begin="-21.818181818181817s"/></path><path d="M1371.3162600459812 495.5 L1389.6325200919623 495.5 A15.5 15.5 0 0 1 1389.6325200919623 527.5 L1371.3162600459812 527.5 A15.5 15.5 0 0 1 1371.3162600459812 495.5" fill="#000"><animateTransform attributeName="transform" type="translate" dur="3.3333333333333335s" repeatCount="indefinite" keyTimes="0;1" values="0;-1252.8513074762645" begin="-21.818181818181817s"/><animate attributeName="opacity" dur="3.3333333333333335s" repeatCount="indefinite" keyTimes="0;0.3;1" values="1;1;0" begin="-21.818181818181817s"/></path><path d="M1622 526.5 L633.58946530824 526.5 A15.5 15.5 0 0 0 633.58946530824 558.5 L1622 558.5" fill="#fff"><animateTransform attributeName="transform" type="translate" dur="5s" repeatCount="indefinite" keyTimes="0;0.5;1" calcMode="spline" keySplines="0.5 0 0.5 1;0.5 0 0.5 1" values="-27.68408413159812;0;-27.68408413159812" begin="-23.181818181818183s"/></path><path d="M751.5203923698493 526.5 L769.3429563909665 526.5 A15.5 15.5 0 0 1 769.3429563909665 558.5 L751.5203923698493 558.5 A15.5 15.5 0 0 1 751.5203923698493 526.5" fill="#fff"><animateTransform attributeName="transform" type="translate" dur="3.3333333333333335s" repeatCount="indefinite" keyTimes="0;1" values="0;0" begin="-23.181818181818183s"/><animate attributeName="opacity" dur="3.3333333333333335s" repeatCount="indefinite" keyTimes="0;0.3;1" values="1;1;0" begin="-23.181818181818183s"/></path><path d="M1622 557.5 L663.2463646799313 557.5 A15.5 15.5 0 0 1 663.2463646799313 589.5 L1622 589.5" fill="#fff"><animateTransform attributeName="transform" type="translate" dur="5s" repeatCount="indefinite" keyTimes="0;0.5;1" calcMode="spline" keySplines="0.5 0 0.5 1;0.5 0 0.5 1" values="35.28035394815364;0;35.28035394815364" begin="-24.545454545454547s"/></path><path d="M1383.9437780316061 557.5 L1414.8875560632123 557.5 A15.5 15.5 0 0 1 1414.8875560632123 589.5 L1383.9437780316061 589.5 A15.5 15.5 0 0 1 1383.9437780316061 557.5" fill="#000"><animateTransform attributeName="transform" type="translate" dur="10s" repeatCount="indefinite" keyTimes="0;1" values="0;-1159.3549108662608" begin="-24.545454545454547s"/><animate attributeName="opacity" dur="10s" repeatCount="indefinite" keyTimes="0;0.3;1" values="1;1;0" begin="-24.545454545454547s"/></path><path d="M1622 588.5 L622.747770881549 588.5 A15.5 15.5 0 0 0 622.747770881549 620.5 L1622 620.5" fill="#fff"><animateTransform attributeName="transform" type="translate" dur="10s" repeatCount="indefinite" keyTimes="0;0.5;1" calcMode="spline" keySplines="0.5 0 0.5 1;0.5 0 0.5 1" values="-29.12769794033708;0;-29.12769794033708" begin="-25.909090909090907s"/></path><path d="M756.5630862138495 588.5 L766.6024347352843 588.5 A15.5 15.5 0 0 1 766.6024347352843 620.5 L756.5630862138495 620.5 A15.5 15.5 0 0 1 756.5630862138495 588.5" fill="#fff"><animateTransform attributeName="transform" type="translate" dur="10s" repeatCount="indefinite" keyTimes="0;1" values="0;0" begin="-25.909090909090907s"/><animate attributeName="opacity" dur="10s" repeatCount="indefinite" keyTimes="0;0.3;1" values="1;1;0" begin="-25.909090909090907s"/></path><path d="M1622 619.5 L656.0032743881559 619.5 A15.5 15.5 0 0 1 656.0032743881559 651.5 L1622 651.5" fill="#fff"><animateTransform attributeName="transform" type="translate" dur="5s" repeatCount="indefinite" keyTimes="0;0.5;1" calcMode="spline" keySplines="0.5 0 0.5 1;0.5 0 0.5 1" values="35.71237986432614;0;35.71237986432614" begin="-27.27272727272727s"/></path><path d="M1390.643594380802 619.5 L1428.2871887616038 619.5 A15.5 15.5 0 0 1 1428.2871887616038 651.5 L1390.643594380802 651.5 A15.5 15.5 0 0 1 1390.643594380802 619.5" fill="#000"><animateTransform attributeName="transform" type="translate" dur="3.3333333333333335s" repeatCount="indefinite" keyTimes="0;1" values="0;-1075.9734352312032" begin="-27.27272727272727s"/><animate attributeName="opacity" dur="3.3333333333333335s" repeatCount="indefinite" keyTimes="0;0.3;1" values="1;1;0" begin="-27.27272727272727s"/></path><path d="M1622 650.5 L632.1646063339176 650.5 A15.5 15.5 0 0 0 632.1646063339176 682.5 L1622 682.5" fill="#fff"><animateTransform attributeName="transform" type="translate" dur="3.3333333333333335s" repeatCount="indefinite" keyTimes="0;0.5;1" calcMode="spline" keySplines="0.5 0 0.5 1;0.5 0 0.5 1" values="-45.58971817801795;0;-45.58971817801795" begin="-28.636363636363637s"/></path><path d="M734.3951993521355 650.5 L756.2809229177493 650.5 A15.5 15.5 0 0 1 756.2809229177493 682.5 L734.3951993521355 682.5 A15.5 15.5 0 0 1 734.3951993521355 650.5" fill="#fff"><animateTransform attributeName="transform" type="translate" dur="10s" repeatCount="indefinite" keyTimes="0;1" values="0;0" begin="-28.636363636363637s"/><animate attributeName="opacity" dur="10s" repeatCount="indefinite" keyTimes="0;0.3;1" values="1;1;0" begin="-28.636363636363637s"/></path></g></mask></defs><rect x="0" y="0" width="1322" height="664" fill="url(#ldbk-photon-x4yhk25rqp-lg)" mask="url(#ldbk-photon-x4yhk25rqp-mask)"/></g></svg>