<svg width="48" height="49" viewBox="0 0 48 49" fill="none" xmlns="http://www.w3.org/2000/svg">
<path d="M23.1429 42.5C20.8 42.5 18.5857 42.0497 16.5 41.1491C14.4143 40.2497 12.5931 39.0211 11.0366 37.4634C9.47886 35.9069 8.25029 34.0857 7.35086 32C6.45029 29.9143 6 27.7 6 25.3571C6 22.9857 6.45029 20.7646 7.35086 18.6937C8.25029 16.6217 9.47886 14.8074 11.0366 13.2509C12.5931 11.6931 14.4143 10.464 16.5 9.56343C18.5857 8.664 20.8 8.21429 23.1429 8.21429C24.0571 8.21429 24.936 8.27829 25.7794 8.40629C26.6217 8.53543 27.4571 8.72857 28.2857 8.98571V13.3571C28.2857 14.3 27.9503 15.1069 27.2794 15.7777C26.6074 16.4497 25.8 16.7857 24.8571 16.7857H21.4286V20.2143C21.4286 20.7 21.2646 21.1069 20.9366 21.4349C20.6074 21.764 20.2 21.9286 19.7143 21.9286H16.2857V25.3571H26.5714C27.0571 25.3571 27.4646 25.5211 27.7937 25.8491C28.1217 26.1783 28.2857 26.5857 28.2857 27.0714V32.2143H30C30.7714 32.2143 31.4503 32.4429 32.0366 32.9C32.6217 33.3571 33.0286 33.9286 33.2571 34.6143C34.3714 33.3571 35.2503 31.9503 35.8937 30.3937C36.536 28.836 36.8571 27.1571 36.8571 25.3571C36.8571 25.0429 36.8429 24.7571 36.8143 24.5C36.7857 24.2429 36.7429 23.9571 36.6857 23.6429H40.2C40.2571 23.9571 40.2857 24.2429 40.2857 24.5V25.3571C40.2857 27.7 39.8354 29.9143 38.9349 32C38.0354 34.0857 36.8069 35.9069 35.2491 37.4634C33.6926 39.0211 31.8783 40.2497 29.8063 41.1491C27.7354 42.0497 25.5143 42.5 23.1429 42.5ZM21.4286 38.9857V35.6429C20.4857 35.6429 19.6789 35.3074 19.008 34.6366C18.336 33.9646 18 33.1571 18 32.2143V30.5L9.77143 22.2714C9.68571 22.7857 9.60686 23.3 9.53486 23.8143C9.464 24.3286 9.42857 24.8429 9.42857 25.3571C9.42857 28.9 10.5789 31.9497 12.8794 34.5063C15.1789 37.064 18.0286 38.5571 21.4286 38.9857ZM33.4286 20.2143C32.9429 20.2143 32.536 20.0497 32.208 19.7206C31.8789 19.3926 31.7143 18.9857 31.7143 18.5V13.3571C31.7143 12.8714 31.8789 12.464 32.208 12.1349C32.536 11.8069 32.9429 11.6429 33.4286 11.6429V9.92857C33.4286 8.98571 33.764 8.17829 34.4349 7.50629C35.1069 6.83543 35.9143 6.5 36.8571 6.5C37.8 6.5 38.6074 6.83543 39.2794 7.50629C39.9503 8.17829 40.2857 8.98571 40.2857 9.92857V11.6429C40.7714 11.6429 41.1783 11.8069 41.5063 12.1349C41.8354 12.464 42 12.8714 42 13.3571V18.5C42 18.9857 41.8354 19.3926 41.5063 19.7206C41.1783 20.0497 40.7714 20.2143 40.2857 20.2143H33.4286ZM35.1429 11.6429H38.5714V9.92857C38.5714 9.44286 38.4069 9.03543 38.0777 8.70629C37.7497 8.37829 37.3429 8.21429 36.8571 8.21429C36.3714 8.21429 35.9646 8.37829 35.6366 8.70629C35.3074 9.03543 35.1429 9.44286 35.1429 9.92857V11.6429Z" fill="url(#paint0_linear_939_31546)"/>
<defs>
<linearGradient id="paint0_linear_939_31546" x1="17.0042" y1="22.1882" x2="58.9134" y2="33.5956" gradientUnits="userSpaceOnUse">
<stop stop-color="#01A4FF"/>
<stop offset="0.838542" stop-color="#01FFC2"/>
</linearGradient>
</defs>
</svg>
