<svg width="48" height="48" viewBox="0 0 48 48" fill="none" xmlns="http://www.w3.org/2000/svg">
<mask id="mask0_939_31527" style="mask-type:alpha" maskUnits="userSpaceOnUse" x="0" y="0" width="48" height="48">
<rect width="48" height="48" fill="url(#paint0_linear_939_31527)"/>
</mask>
<g mask="url(#mask0_939_31527)">
<path d="M24 32.75L21.3 26.7L15.25 24L21.3 21.25L24 15.2L26.75 21.25L32.8 24L26.75 26.7L24 32.75ZM24.35 46C20.3167 46 16.6333 45.0583 13.3 43.175C9.96667 41.2917 7.2 38.6167 5 35.15V41.95H2V30H13.9V33H7.2C9.1 36.1667 11.55 38.625 14.55 40.375C17.55 42.125 20.8167 43 24.35 43C28.3833 43 32.0167 41.825 35.25 39.475C38.4833 37.125 40.7333 34.0333 42 30.2L44.95 30.85C43.5167 35.3833 40.9083 39.0417 37.125 41.825C33.3417 44.6083 29.0833 46 24.35 46ZM2.1 22C2.33333 19.7333 2.86667 17.5917 3.7 15.575C4.53333 13.5583 5.66667 11.6833 7.1 9.95L9.25 12.1C8.08333 13.6 7.15 15.1833 6.45 16.85C5.75 18.5167 5.3 20.2333 5.1 22H2.1ZM12.05 9.3L9.95 7.1C11.75 5.63333 13.6667 4.48333 15.7 3.65C17.7333 2.81667 19.8667 2.3 22.1 2.1V5.1C20.3667 5.26667 18.6833 5.69167 17.05 6.375C15.4167 7.05833 13.75 8.03333 12.05 9.3ZM35.95 9.3C34.45 8.1 32.8667 7.14167 31.2 6.425C29.5333 5.70833 27.8 5.26667 26 5.1V2.1C28.2667 2.3 30.4083 2.81667 32.425 3.65C34.4417 4.48333 36.3167 5.63333 38.05 7.1L35.95 9.3ZM42.9 22C42.7333 20.3 42.2667 18.5833 41.5 16.85C40.7333 15.1167 39.75 13.5 38.55 12L40.65 9.8C42.1833 11.6 43.4 13.5417 44.3 15.625C45.2 17.7083 45.7333 19.8333 45.9 22H42.9Z" fill="url(#paint1_linear_939_31527)"/>
</g>
<defs>
<linearGradient id="paint0_linear_939_31527" x1="14.6722" y1="20.9176" x2="70.5512" y2="36.1274" gradientUnits="userSpaceOnUse">
<stop stop-color="#01A4FF"/>
<stop offset="0.838542" stop-color="#01FFC2"/>
</linearGradient>
<linearGradient id="paint1_linear_939_31527" x1="15.419" y1="21.2309" x2="66.525" y2="35.1416" gradientUnits="userSpaceOnUse">
<stop stop-color="#01A4FF"/>
<stop offset="0.838542" stop-color="#01FFC2"/>
</linearGradient>
</defs>
</svg>
